<svg aria-hidden="true" style="position: absolute; width: 0; height: 0; overflow: hidden;" version="1.1" xmlns="http://www.w3.org/2000/svg" xmlns:xlink="http://www.w3.org/1999/xlink">
<defs>
<symbol id="icon-email" viewBox="0 0 32 32">
<path d="M29 4h-26c-1.657 0-3 1.343-3 3v0 18c0 1.657 1.343 3 3 3v0h13v-2h-13c-0.552 0-1-0.448-1-1v0-17.77l13.42 9.58c0.161 0.116 0.362 0.185 0.58 0.185s0.419-0.069 0.583-0.187l-0.003 0.002 13.42-9.58v9.77h2v-10c0-1.657-1.343-3-3-3v0zM16 14.77l-12.28-8.77h24.56z"></path>
<path d="M24.29 18.29l-4 4 1.41 1.41 2.3-2.29v7.59h2v-7.59l2.29 2.29 1.41-1.41-4-4c-0.181-0.18-0.43-0.291-0.705-0.291s-0.524 0.111-0.705 0.291l0-0z"></path>
</symbol>
<symbol id="icon-linkedin" viewBox="0 0 32 32">
<path d="M29.5 30h-4.999c-1.211 0-2.22-0.86-2.451-2.003-0.017 0-0.033 0.002-0.050 0.002v-9.050c0-1.078-0.895-1.95-2-1.95s-2 0.872-2 1.95v8.551c0 0.61-0.228 1.159-0.59 1.594-0.199 0.301-0.538 0.499-0.925 0.499-0.613 0-1.11-0.497-1.11-1.11 0-0.324 0.141-0.613 0.364-0.816 0.162-0.178 0.261-0.409 0.261-0.667v-8.144c0-2.13 1.791-3.857 4-3.857s4 1.727 4 3.857v6.714c0 0.072-0.007 0.134-0.011 0.2 0.003-0.001 0.008-0.001 0.011-0.002v1.232c0 0.552 0.447 0.999 1 0.999h4c0.553 0 1-0.447 1-0.999v-9c0-0.075-0.009-0.147-0.024-0.217-0.257-4.343-3.724-7.784-7.976-7.784-1.765 0-3.39 0.599-4.71 1.604-0.005-0.002-0.010-0.001-0.020 0.006-0.134 0.108-0.304 0.172-0.488 0.172-0.432 0-0.781-0.35-0.781-0.782 0-0.054-0.003-0.082-0.009-0.089-0.046-0.509-0.47-0.911-0.991-0.911h-3c-1.104 0-2 0.896-2 2.001v15.001c0 0.090 0.016 0.176 0.038 0.259-0.023 0.072-0.038 0.151-0.038 0.241 0 1.38-1.119 2.499-2.5 2.499h-5c-1.38 0-2.5-1.119-2.5-2.499v-17.002c0-1.38 1.12-2.499 2.5-2.499h2.5c1.656 0 2.999-1.343 2.999-3.001s-1.343-3.001-2.999-3.001c-1.657 0-3 1.343-3 3.001 0 0.553-0.447 1-1 1-0.551 0-1-0.447-1-1 0-2.762 2.239-5 5-5s4.999 2.238 4.999 5c0 0.253-0.025 0.5-0.062 0.744-0.008 0.047-0.012 0.095-0.021 0.142-0.044 0.243-0.103 0.482-0.182 0.712-0.003 0.011-0.009 0.021-0.012 0.033-0.173 0.497-0.418 0.957-0.729 1.369-0.912 1.212-2.359 2-3.994 2h-2c-0.553 0-1 0.449-1 1v16.001c0 0.552 0.447 0.999 1 0.999h5.050c-0.033-0.162-0.051-0.328-0.051-0.499v-15.501c0-2.209 1.792-4 4-4h3.5c0.618 0 1.179 0.228 1.615 0.601 0.005 0.003 0.011-0.002 0.017 0.002 0.175 0.15 0.401 0.24 0.649 0.24 0.137 0 0.267-0.027 0.384-0.077 0.036-0.016 0.057-0.013 0.078-0.011 1.161-0.476 2.424-0.756 3.757-0.756 5.184 0 9.445 3.944 9.95 8.994 0.034 0.163 0.050 0.333 0.050 0.506v10c0 1.38-1.119 2.499-2.5 2.499v0zM13 28c0.552 0 1 0.448 1 1 0 0.553-0.448 1-1 1-0.553 0-1-0.447-1-1 0-0.552 0.448-1 1-1v0z"></path>
</symbol>
<symbol id="icon-phone" viewBox="0 0 32 32">
<path d="M31.328 23.030l-4.793-4.793c-0.426-0.427-0.993-0.662-1.596-0.662 0 0-0.001 0-0.002 0-0.603 0-1.171 0.236-1.596 0.662l-3.195 3.195-9.587-9.587 3.195-3.195c0.881-0.881 0.881-2.316-0.001-3.197l-4.794-4.793c-0.426-0.426-0.993-0.661-1.596-0.661h-0.001c-0.604 0-1.172 0.236-1.598 0.663l-4.794 4.794c-0.146 0.145-1.409 1.512-0.809 4.516 0.707 3.535 3.667 7.93 8.798 13.061 7.343 7.343 11.974 8.967 14.635 8.967 1.842 0 2.741-0.778 2.942-0.98l4.793-4.793c0.427-0.427 0.663-0.995 0.662-1.6 0-0.603-0.235-1.172-0.662-1.599zM24.937 29.423c-0.032 0.032-3.852 2.541-14.382-7.988-10.757-10.756-7.984-14.382-7.989-14.38l4.794-4.795 4.794 4.795-3.994 3.994c-0.442 0.442-0.442 1.156 0 1.598l11.184 11.184c0.442 0.442 1.156 0.442 1.598 0l3.994-3.995 4.794 4.795-4.793 4.793z"></path>
</symbol>
<symbol id="icon-telegram" viewBox="0 0 32 32">
<path d="M31.856 6.645l-4.216 20.303c-0.458 2.25-1.979 3.052-3.25 3.052-0.656 0-1.337-0.197-2.026-0.585l-0.114-0.066-0.107-0.080-8.767-6.618-0.329 3.867c-0.172 0.904-0.994 1.552-1.93 1.476-0.719-0.059-1.302-0.53-1.546-1.16l-1.463-4.392c-0.067-0.135-0.107-0.283-0.107-0.442 0-0.552 0.447-1 1-1 0.437 0 0.803 0.28 0.94 0.669 0.001 0 0.002-0.001 0.004-0.003l1.201 3.607 0.176-2.064c0-0.003 0-0.003 0-0.003 0.109-1.323 1.269-2.306 2.591-2.198 0.437 0.035 0.833 0.191 1.168 0.424l8.268 6.241c0.385 0.217 0.735 0.327 1.043 0.327 0.639 0 1.092-0.475 1.291-1.45l4.224-20.341c0.345-1.41-0.279-2.208-1.12-2.208-0.215 0-0.442 0.052-0.674 0.159l-24.802 9.774c-1.694 0.694-1.683 1.659-0.309 2.088l4.099 1.308c0.001 0 0.005-0.003 0.006-0.002 0.281 0.087 0.598 0.057 0.867-0.111 0.005-0.003 0.008-0.002 0.013-0.004l10.969-6.912c0.93-0.573 2.151-0.296 2.737 0.63 0.498 0.787 0.375 1.786-0.234 2.435l-5.765 5.763c-0.18 0.172-0.422 0.279-0.69 0.279-0.553 0-1-0.448-1-1 0-0.268 0.107-0.511 0.279-0.69l-0.001-0.001 5.697-5.698-10.969 6.912c-0.783 0.475-1.698 0.56-2.511 0.302-0.006-0.003-0.012 0-0.019-0.003l-4.075-1.3c-2.147-0.672-2.38-2.228-2.4-2.688-0.033-0.776 0.253-2.219 2.546-3.16l0.012-0.005 0.013-0.005 24.758-9.755c0.474-0.209 0.962-0.316 1.453-0.316 0.98 0 1.883 0.435 2.479 1.196 0.7 0.889 0.909 2.114 0.593 3.45v0zM15 25c0.553 0 1 0.448 1 1s-0.447 1-1 1-1-0.448-1-1 0.447-1 1-1v0z"></path>
</symbol>
<symbol id="icon-github" viewBox="0 0 32 32">
<path d="M12 23c0-0.553 0.447-1 1-1s1 0.447 1 1-0.447 1-1 1-1-0.447-1-1v0zM21.833 30.885c-0.267 0.076-0.542 0.131-0.833 0.131-1.657 0-3-1.343-3-3v-3.637c0-1.256 0.806-2.322 1.925-2.715 2.148-0.722 4.075-2.534 4.075-4.664v-2c0-0.948-0.387-1.83-1-2.585v-2.258c0-1.104-0.895-1.482-2-0.844l-1.532 0.886c-0.491-0.127-0.986-0.199-1.468-0.199h-4c-0.481 0-0.977 0.072-1.468 0.199l-1.532-0.886c-1.104-0.639-2-0.261-2 0.844v2.258c-0.613 0.755-1 1.638-1 2.585v2c0 1.455 0.905 2.762 2.161 3.676l-0.001 0.002c0.261 0.179 0.434 0.48 0.434 0.822 0 0.552-0.448 1-1 1-0.283 0-0.536-0.118-0.717-0.307-1.689-1.279-2.876-3.129-2.876-5.193v-2c0-1.158 0.376-2.249 1-3.211v-2.977c0-2.208 1.79-2.965 4-1.687l1.716 0.993c0.428-0.073 0.857-0.118 1.284-0.118h4c0.427 0 0.855 0.045 1.284 0.118l1.716-0.993c2.21-1.278 4-0.521 4 1.687v2.977c0.624 0.962 1 2.053 1 3.211v2c0 2.976-2.453 5.509-5.346 6.522-0.003 0.003-0.007 0.011-0.012 0.012-0.376 0.145-0.643 0.508-0.643 0.935v3.547c0 0.553 0.447 1 1 1 0.084 0 0.16-0.023 0.237-0.043 5.136-2.072 8.763-7.094 8.763-12.973 0-7.732-6.268-14-14-14s-14 6.268-14 14c0 6.088 3.891 11.254 9.32 13.181 0.028 0.003 0.053 0.015 0.082 0.015 0.33 0 0.598-0.269 0.598-0.598 0-0.33-0.268-0.598-0.598-0.598-0.007 0-0.007-0.006-0.012-0.009-3.322-0.089-3.326-3.991-4.39-3.991-0.553 0-1-0.447-1-1s0.447-1 1-1c0.106 0 0.263 0 0.499 0 2.001 0 1.715 4 4.501 4 1.104 0 2 0.895 2 2v1.75c0 0.966-0.783 1.75-1.75 1.75-0.105 0-0.205-0.021-0.305-0.041-6.869-1.796-11.944-8.026-11.944-15.459 0-8.836 7.164-16 16-16s16 7.164 16 16c0 6.776-4.218 12.553-10.167 14.885v0z"></path>
</symbol>
<symbol id="icon-location" viewBox="0 0 32 32">
<path d="M16 0c-5.523 0-10 4.477-10 10 0 10 10 22 10 22s10-12 10-22c0-5.523-4.477-10-10-10zM16 16c-3.314 0-6-2.686-6-6s2.686-6 6-6 6 2.686 6 6-2.686 6-6 6z"></path>
</symbol>
</defs>
</svg>
